<svg xmlns="http://www.w3.org/2000/svg" viewBox="0 0 256 256" role="img" aria-labelledby="title desc">
<title>CarsonArch logo</title>
<desc>A stylized blue C surrounding a Linux penguin-inspired white circle.</desc>
<rect width="256" height="256" rx="48" fill="#111827"/>
<path d="M183 55c-22-19-52-28-82-22-45 9-78 49-78 95 0 54 44 98 98 98 31 0 60-14 79-39l-34-26c-11 14-27 22-45 22-30 0-55-25-55-55s25-55 55-55c17 0 33 8 44 21l35-39z" fill="#38bdf8"/>
<circle cx="125" cy="126" r="43" fill="#f8fafc"/>
<circle cx="110" cy="119" r="5" fill="#111827"/>
<circle cx="140" cy="119" r="5" fill="#111827"/>
<path d="M112 139c8 7 19 7 27 0" fill="none" stroke="#111827" stroke-width="5" stroke-linecap="round"/>
<path d="M125 128l14 7-14 7-14-7z" fill="#f59e0b"/>
</svg>